<svg id="visual" viewBox="0 0 960 540" width="960" height="540" xmlns="http://www.w3.org/2000/svg" xmlns:xlink="http://www.w3.org/1999/xlink" version="1.1"><rect x="0" y="0" width="960" height="540" fill="#0a0a0a"></rect><defs><linearGradient id="grad1_0" x1="43.8%" y1="0%" x2="100%" y2="100%"><stop offset="14.444444444444446%" stop-color="#0a0a0a" stop-opacity="1"></stop><stop offset="85.55555555555554%" stop-color="#0a0a0a" stop-opacity="1"></stop></linearGradient></defs><defs><linearGradient id="grad2_0" x1="0%" y1="0%" x2="56.3%" y2="100%"><stop offset="14.444444444444446%" stop-color="#0a0a0a" stop-opacity="1"></stop><stop offset="85.55555555555554%" stop-color="#0a0a0a" stop-opacity="1"></stop></linearGradient></defs><g transform="translate(960, 0)"><path d="M0 486C-44.6 431.5 -89.2 377 -148.9 359.4C-208.5 341.8 -283.2 361.1 -338 338C-392.8 314.9 -427.7 249.4 -449 186C-470.4 122.6 -478.2 61.3 -486 0L0 0Z" fill="#73c883"></path></g><g transform="translate(0, 540)"><path d="M0 -486C67.1 -483.2 134.2 -480.4 186 -449C237.8 -417.6 274.3 -357.7 306.9 -306.9C339.5 -256 368.1 -214.2 397.3 -164.6C426.5 -114.9 456.2 -57.5 486 0L0 0Z" fill="#73c883"></path></g></svg>